<mxfile host="app.diagrams.net" modified="2022-12-25T18:43:44.302Z" agent="5.0 (Macintosh; Intel Mac OS X 10_15_7) AppleWebKit/537.36 (KHTML, like Gecko) Chrome/108.0.0.0 Safari/537.36" etag="ikcCZA4jBUYw_Iu-ZfoP" version="20.6.0" type="github">
  <diagram name="Page-1" id="c7488fd3-1785-93aa-aadb-54a6760d102a">
    <mxGraphModel dx="946" dy="614" grid="1" gridSize="10" guides="1" tooltips="1" connect="1" arrows="1" fold="1" page="1" pageScale="1" pageWidth="1100" pageHeight="850" background="none" math="0" shadow="0">
      <root>
        <mxCell id="0" />
        <mxCell id="1" parent="0" />
        <mxCell id="2b4e8129b02d487f-1" value="Pool" style="swimlane;html=1;childLayout=stackLayout;horizontal=1;startSize=20;horizontalStack=0;rounded=0;shadow=0;labelBackgroundColor=none;strokeWidth=1;fontFamily=Verdana;fontSize=8;align=center;" parent="1" vertex="1">
          <mxGeometry x="90" y="80" width="670" height="500" as="geometry" />
        </mxCell>
        <mxCell id="2b4e8129b02d487f-2" value="CICD 平台" style="swimlane;html=1;startSize=20;horizontal=0;" parent="2b4e8129b02d487f-1" vertex="1">
          <mxGeometry y="20" width="670" height="180" as="geometry" />
        </mxCell>
        <mxCell id="LBiqWSKvaIRxEotlT_i5-7" value="Actor" style="shape=umlActor;verticalLabelPosition=bottom;verticalAlign=top;html=1;outlineConnect=0;" vertex="1" parent="2b4e8129b02d487f-2">
          <mxGeometry x="40" y="70" width="20" height="30" as="geometry" />
        </mxCell>
        <mxCell id="LBiqWSKvaIRxEotlT_i5-13" value="构建镜像" style="rounded=0;whiteSpace=wrap;html=1;" vertex="1" parent="2b4e8129b02d487f-2">
          <mxGeometry x="110" y="70" width="70" height="30" as="geometry" />
        </mxCell>
        <mxCell id="LBiqWSKvaIRxEotlT_i5-14" value="" style="endArrow=classic;html=1;rounded=0;" edge="1" parent="2b4e8129b02d487f-2">
          <mxGeometry width="50" height="50" relative="1" as="geometry">
            <mxPoint x="70" y="84.5" as="sourcePoint" />
            <mxPoint x="110" y="84.5" as="targetPoint" />
            <Array as="points" />
          </mxGeometry>
        </mxCell>
        <mxCell id="LBiqWSKvaIRxEotlT_i5-22" value="Actor" style="shape=umlActor;verticalLabelPosition=bottom;verticalAlign=top;html=1;outlineConnect=0;" vertex="1" parent="2b4e8129b02d487f-2">
          <mxGeometry x="350" y="70" width="20" height="30" as="geometry" />
        </mxCell>
        <mxCell id="LBiqWSKvaIRxEotlT_i5-23" value="build config" style="shape=document;whiteSpace=wrap;html=1;boundedLbl=1;" vertex="1" parent="2b4e8129b02d487f-2">
          <mxGeometry x="210" y="10" width="70" height="35" as="geometry" />
        </mxCell>
        <mxCell id="LBiqWSKvaIRxEotlT_i5-36" value="构建" style="rounded=0;whiteSpace=wrap;html=1;" vertex="1" parent="2b4e8129b02d487f-2">
          <mxGeometry x="210" y="70" width="70" height="30" as="geometry" />
        </mxCell>
        <mxCell id="LBiqWSKvaIRxEotlT_i5-37" value="" style="endArrow=classic;html=1;rounded=0;exitX=1;exitY=0.5;exitDx=0;exitDy=0;entryX=0;entryY=0.5;entryDx=0;entryDy=0;" edge="1" parent="2b4e8129b02d487f-2" source="LBiqWSKvaIRxEotlT_i5-13" target="LBiqWSKvaIRxEotlT_i5-36">
          <mxGeometry width="50" height="50" relative="1" as="geometry">
            <mxPoint x="210" y="130" as="sourcePoint" />
            <mxPoint x="250" y="130" as="targetPoint" />
            <Array as="points" />
          </mxGeometry>
        </mxCell>
        <mxCell id="LBiqWSKvaIRxEotlT_i5-38" value="" style="endArrow=classic;html=1;rounded=0;exitX=0.5;exitY=0.9;exitDx=0;exitDy=0;exitPerimeter=0;entryX=0.5;entryY=0;entryDx=0;entryDy=0;" edge="1" parent="2b4e8129b02d487f-2" source="LBiqWSKvaIRxEotlT_i5-23" target="LBiqWSKvaIRxEotlT_i5-36">
          <mxGeometry width="50" height="50" relative="1" as="geometry">
            <mxPoint x="300" y="220" as="sourcePoint" />
            <mxPoint x="340" y="220" as="targetPoint" />
            <Array as="points" />
          </mxGeometry>
        </mxCell>
        <mxCell id="LBiqWSKvaIRxEotlT_i5-61" value="选择镜像" style="rounded=0;whiteSpace=wrap;html=1;" vertex="1" parent="2b4e8129b02d487f-2">
          <mxGeometry x="410" y="10" width="70" height="30" as="geometry" />
        </mxCell>
        <mxCell id="LBiqWSKvaIRxEotlT_i5-62" value="配置initcontainer" style="rounded=0;whiteSpace=wrap;html=1;" vertex="1" parent="2b4e8129b02d487f-2">
          <mxGeometry x="410" y="50" width="70" height="30" as="geometry" />
        </mxCell>
        <mxCell id="LBiqWSKvaIRxEotlT_i5-74" value="配置 Env" style="rounded=0;whiteSpace=wrap;html=1;" vertex="1" parent="2b4e8129b02d487f-2">
          <mxGeometry x="410" y="90" width="70" height="30" as="geometry" />
        </mxCell>
        <mxCell id="2b4e8129b02d487f-3" value="K8S 集群" style="swimlane;html=1;startSize=20;horizontal=0;" parent="2b4e8129b02d487f-1" vertex="1">
          <mxGeometry y="200" width="670" height="150" as="geometry" />
        </mxCell>
        <mxCell id="LBiqWSKvaIRxEotlT_i5-17" value="" style="endArrow=classic;html=1;rounded=0;" edge="1" parent="2b4e8129b02d487f-3">
          <mxGeometry width="50" height="50" relative="1" as="geometry">
            <mxPoint x="244.5" y="-50" as="sourcePoint" />
            <mxPoint x="245" y="210" as="targetPoint" />
          </mxGeometry>
        </mxCell>
        <mxCell id="2b4e8129b02d487f-4" value="镜像仓库" style="swimlane;html=1;startSize=20;horizontal=0;" parent="2b4e8129b02d487f-1" vertex="1">
          <mxGeometry y="350" width="670" height="150" as="geometry" />
        </mxCell>
        <mxCell id="LBiqWSKvaIRxEotlT_i5-16" value="镜像" style="rounded=0;whiteSpace=wrap;html=1;" vertex="1" parent="2b4e8129b02d487f-4">
          <mxGeometry x="210" y="60" width="70" height="30" as="geometry" />
        </mxCell>
        <mxCell id="LBiqWSKvaIRxEotlT_i5-43" value="" style="swimlane;childLayout=stackLayout;resizeParent=1;resizeParentMax=0;horizontal=1;startSize=20;horizontalStack=0;html=1;" vertex="1" parent="1">
          <mxGeometry x="860" y="490" width="160" height="110" as="geometry" />
        </mxCell>
        <mxCell id="LBiqWSKvaIRxEotlT_i5-44" value="" style="swimlane;startSize=20;horizontal=0;html=1;" vertex="1" parent="LBiqWSKvaIRxEotlT_i5-43">
          <mxGeometry y="20" width="160" height="30" as="geometry" />
        </mxCell>
        <mxCell id="LBiqWSKvaIRxEotlT_i5-56" value="选择镜像" style="text;html=1;align=center;verticalAlign=middle;resizable=0;points=[];autosize=1;strokeColor=none;fillColor=none;" vertex="1" parent="LBiqWSKvaIRxEotlT_i5-44">
          <mxGeometry x="45" width="70" height="30" as="geometry" />
        </mxCell>
        <mxCell id="LBiqWSKvaIRxEotlT_i5-46" value="" style="swimlane;startSize=20;horizontal=0;html=1;" vertex="1" parent="LBiqWSKvaIRxEotlT_i5-43">
          <mxGeometry y="50" width="160" height="30" as="geometry" />
        </mxCell>
        <mxCell id="LBiqWSKvaIRxEotlT_i5-57" value="" style="swimlane;startSize=20;horizontal=0;html=1;" vertex="1" parent="LBiqWSKvaIRxEotlT_i5-43">
          <mxGeometry y="80" width="160" height="30" as="geometry" />
        </mxCell>
      </root>
    </mxGraphModel>
  </diagram>
</mxfile>
